<svg xmlns="http://www.w3.org/2000/svg" xmlns:xlink="http://www.w3.org/1999/xlink" preserveAspectRatio="none" width="155" height="45" viewBox="0 0 155 45"><defs><g id="a"><path fill="#42BAF1" d="M40.85 21.35q.7-2.95.7-6.2 0-4.6-1.2-4.6-.5 0-1.55 1-2.1 2-2.1 3.9v.8q.1 1.45.1 2.55 0 1.85-.25 3.6-.3 1.7-.7 3-.4 1.3-1 2.15-.55.85-1.1.85-1.95 0-1.95-5 0-2.5.55-5.6.6-3.15 1.5-5.8.45-1.4.45-1.85 0-.5-.4-.8Q33.45 9 32.75 9q-1 0-2.35.45-1.3.35-1.75.8-1.1.95-3.75 6.8-.25.65-.55 1.3-.65 1.35-1.45 2.8-.35.6-.65 1.05l-.6 1q-.9 1.45-1.7 2.45l-.1-.05.1-4.2q.1-2.15.15-3.4.1-1.2.35-3.2.3-2.95.65-4.6.1-.3.1-.45 0-.45-.3-.7-.3-.25-.8-.25-.55 0-1.5.25-1 .25-1.9.6-1.05.45-1.55.85-.55.4-.85 1.05-.65 1.55-.65 6.2 0 5.7.55 9.7.5 4 1.4 4.95.2.25.5.35.25.1.45.1.7 0 1.65-.45 1-.45 1.65-1.1 1.2-1.25 2.9-3.85 1.5-2.2 2.85-4.8h.05v1.15q0 4.7 1.4 6.95t4.3 2.25q1.55 0 2.95-.95 1.1-.75 2.2-2 1.15-1.25 1.95-2.6 1.55-2.5 2.4-6.1z"/><path fill="#404040" d="M49.65 21.6q-1.5 0-3.15 1.1-1.35.9-2.3 2.3-.75 1.15-1.25 2.5-.45 1.35-.45 2.4 0 1.4.9 2.25.85.85 2.3.85.6 0 1.35-.25.75-.25 1.5-.6.75-.4 1.55-1 .85-.6 1.45-1.2.35-.35.35-.55 0-.2-.3-.4t-.65-.2q-.3 0-1.1.6-1.45 1.05-2.3 1.05-.8 0-.9-.7.25.1.5.1.6 0 1.35-.45.75-.45 1.55-1.25 1-.95 1.5-1.95.5-1.05.5-2 0-1.2-.65-1.9t-1.75-.7m-.95 1.7q.25 0 .25.65 0 .7-.15 1.5t-.4 1.45q-.35.95-1 1.75-.25.35-.8.7-.1-.45-.1-.7 0-.7.3-1.7t.75-2q.75-1.65 1.15-1.65m16.1.35q-.4-.95-1.05-1.5-.7-.55-1.6-.55-.45 0-.85.15-.45.2-.8.5-.35.25-.8.85-.4.65-.95 1.55l-.35.65-.05-.05q.05-.7.15-1.25.1-.55.1-1 0-.55-.3-.85-.3-.3-.85-.3-.35 0-.7.2-.4.3-.9 1-.45.75-.85 1.65-.6 1.55-1.1 3.45-.5 1.85-.8 3.65-.3 1.8-.3 3.1 0 1.2.4 1.85.35.65 1.05.65.35 0 .6-.25.3-.25.75-1.4t1.25-3.6l.05-.25.1-.2q.45.85 1 1.2t1.4.35q1.45 0 2.75-1.05 1.35-1.05 2.2-2.75.8-1.7.8-3.55 0-1.25-.35-2.25m-7.3 6.65q.05-.2.2-.5.5-1.25 1.5-2.8.45-.85.95-1.45.5-.65.6-.65.15 0 .3.65t.15 1.5q0 1.1-.35 2.1-.35.95-.9 1.55-.55.6-1.2.6-.9 0-1.25-1m39-6.4q0-.95-.95-1.55-1-.65-2.5-.65-1.75 0-3.7 1.3-1.85 1.25-3.1 3-.75 1.1-1.15 2.25-.4 1.15-.4 1.95 0 1.35.85 2.25.85.85 2.15.85.65 0 1.4-.4.8-.4 1.7-1.2.9-.85 2-2.1l.05.05q-.05.2-.05.5 0 3 1.8 3 .7 0 1.35-.3.65-.35 1.35-1-.25-.55-.35-1.1 0-.2-.05-.55-.05-.4-.05-.65v-.8q0-1 .05-2.15l.05-.5q0-.5-.15-.6-.15-.15-.8-.15.5-.8.5-1.45m-5.15-.15q.4-.4.55-.4.25 0 .4.4.2.4.2.9 0 .9-.65 1.9-.2.35-.2.45 0 .2.45.2.35 0 1.2-.2l.25-.1.05.05-.35.25q-1.15 1.2-2.05 1.95-.95.7-1.3.7-.4 0-.65-.4Q89 29 89 28.35q0-.95.65-2.2.6-1.25 1.7-2.4m-8.05-6.2q-.75-.35-1.7-.55-1-.15-2.25-.15-1.1 0-2.2.15t-1.8.45q-.55.2-.9.7-.35.45-.35.95 0 .2.1.35.15.15.35.15.15 0 .6-.15.35-.15.65-.2.25-.1.65-.1l-.2.45-2.55 7.7q-.75 2.4-1 3.35-.25.9-.25 1.4 0 .4.25.65t.65.25q.65 0 1.5-.35.85-.4 1.4-.9.35-.35.6-.75.5-.85 1.05-3.15.35-1.3.5-1.85l1.9-6.1q.75.55 1.1 1.2.3.65.3 1.65 0 1-.25 1.7-.3.75-.85 1.4-.5.45-1.05.75-.7.45-.95.75-.2.25-.2.6 0 .2.3.35.3.15.7.15.95 0 2.15-.5 1.15-.5 1.9-1.25.65-.65 1.2-1.55.55-.9.9-1.9.3-.95.3-1.7 0-.85-.3-1.65-.35-.75-.9-1.3-.6-.6-1.35-1m21.6 6.1q0-2-1-2-.25 0-.45.15t-.55.55q-.15.2-.3.35-.15-1.05-1-1.05-.6 0-1.05.4-.5.45-.85 1.2-.35.8-.8 2.4-.1.2-.1.25l-.05.35q-.3 1.05-.5 2.4Q98 30 98 30.9q0 1.15.35 1.65t1.05.5q.85 0 1.7-.75.3-.3.45-.5.2-.25.25-.65.1-.35.15-.9.05-.4.05-.6l.05-.2q0-.4.1-1.75.1-2.35.45-3 .2.25.3.7.05.45.05 1.2 0 1.5.4 1.5.35 0 .7-.65t.6-1.7q.25-1 .25-2.1m5.3-5.95q-.45.35-.75.75-.55.9-1.3 3.1l-.05.1q-.8.2-1.35.85-.55.65-.55 1.4 0 .4.2.6.2.2.65.2 0 .05-.1.35-.05.3-.15.6-.4 1.6-.6 2.55-.25.95-.25 1.55 0 1.35.8 2.2.75.8 2 .8.5 0 1.1-.2.6-.2 1.1-.55.5-.35.9-.8.4-.45.4-.65 0-.05-.2-.05h-.1q-1.8 0-1.8-1.85 0-.4.05-.85.15-1.25.25-1.95.15-.8.3-1.25.9-.05 1.25-.25.55-.25.85-.75.3-.55.3-1.15 0-.35-.2-.5-.2-.15-.95-.25-.15-.05-.35-.05.3-1.2.9-2.6.35-.85.35-1.1 0-.4-.25-.6-.25-.2-.75-.2-.8 0-1.7.55m25.65 6.5q0-1.2-.65-1.9t-1.75-.7q-1.5 0-3.15 1.1-1.35.9-2.3 2.3-.75 1.15-1.25 2.5-.45 1.35-.45 2.4 0 1.4.9 2.25.85.85 2.3.85.6 0 1.35-.25.75-.25 1.5-.6.75-.4 1.55-1 .85-.6 1.45-1.2.35-.35.35-.55 0-.2-.3-.4t-.65-.2q-.3 0-1.1.6-1.45 1.05-2.3 1.05-.8 0-.9-.7.25.1.5.1.6 0 1.35-.45.75-.45 1.55-1.25 1-.95 1.5-1.95.5-1.05.5-2m-3.35-.9q.25 0 .25.65 0 .7-.15 1.5t-.4 1.45q-.35.95-1 1.75-.25.35-.8.7-.1-.45-.1-.7 0-.7.3-1.7t.75-2q.75-1.65 1.15-1.65m-9.85.1q-.5.25-1.1.85-.65.55-1.7 1.75l-.7.8h-.05q.45-2.2.45-3.35 0-1.6-1.2-1.6-.75 0-1.3.55-.75.8-1.3 2.25-.35.85-.65 1.8-.3 1-.5 1.9-.2.9-.35 1.7-.15.8-.15 1.35 0 .9.5 1.45.45.55 1.2.55.55 0 1-.4.3-.35.65-.85.9-1.2 2.2-2.7l.6-.6q.3-.35.8-.9l.05.05q-.15.9-.15 1.6 0 1 .3 1.8.3.85.85 1.3.55.45 1.2.45.45 0 1.05-.25.6-.25.95-.55.15-.1.15-.3 0-.15-.15-.55-.15-.45-.25-.9-.1-.75-.1-1.9 0-1.05.15-2.25.1-.85.1-1.3 0-1.15-.35-1.55-.35-.45-1.2-.45-.5 0-1 .25m19.8-1.75q-.25 0-.45.15t-.55.55q-.15.2-.3.35-.15-1.05-1-1.05-.6 0-1.05.4-.5.45-.85 1.2-.35.8-.8 2.4-.1.2-.1.25l-.05.35q-.3 1.05-.5 2.4-.25 1.35-.25 2.25 0 1.15.35 1.65t1.05.5q.85 0 1.7-.75.3-.3.45-.5.2-.25.25-.65.1-.35.15-.9.05-.4.05-.6l.05-.2q0-.4.1-1.75.1-2.35.45-3 .2.25.3.7.05.45.05 1.2 0 1.5.4 1.5.35 0 .7-.65t.6-1.7q.25-1 .25-2.1 0-2-1-2m8.9 0q-1.55 0-3.05.85-1.55.85-2.5 2.2-1 1.35-1 2.7 0 .75.55 1.3.55.65 2.4 1.2 1.3.35 1.65.7.35.35.35.85 0 .75-.6 1.4-.55.6-1.25.65-.35-.45-.35-.95 0-.65.45-1.5.15-.25.15-.4 0-.2-.55-.2-.7 0-1.4.4-.75.4-1.25 1.05t-.5 1.3q0 .9.75 1.4.75.5 2.05.5 1.35 0 2.45-.4 1.15-.4 2.25-1.35 1.05-.9 1.55-1.7.5-.85.5-1.65 0-.75-.45-1.25-.25-.25-.4-.35-.6-.3-2.1-.7-.9-.2-1.35-.35-.45-.2-.6-.45-.2-.25-.2-.65 0-.6.25-1.3.25-.65.7-1.15.15-.25.75-.65.45.65.45 1.4 0 .75-.25 1.75-.1.35-.1.5 0 .15.25.3.2.15.55.15.55 0 1.2-.5.65-.45 1.05-1.2.45-.7.45-1.35 0-.7-.4-1.25-.4-.6-1.05-.95t-1.4-.35z"/></g><path fill="#42BAF1" d="M41.55 14.3q-.1-1.35-.25-2.65-1.4-2.3-3.4-4.3Q31.8 1.2 23.1 1.2q-8.7 0-14.85 6.15-6.1 6.15-6.1 14.85t6.1 14.75Q14.4 43.2 23.1 43.2q1.75 0 3.35-.25L25.9 42q-1.55.2-2.8.2-8.3 0-14.15-5.95-5.8-5.8-5.8-14.05 0-8.3 5.8-14.15Q14.8 2.2 23.1 2.2t14.1 5.85q2.85 2.85 4.35 6.25z" id="b"/></defs><use xlink:href="#a"/><use xlink:href="#b"/></svg>